<?xml version="1.0" encoding="utf-8"?>
<!-- Generator: Adobe Illustrator 27.5.0, SVG Export Plug-In . SVG Version: 6.00 Build 0)  -->
<svg version="1.1" xmlns="http://www.w3.org/2000/svg" xmlns:xlink="http://www.w3.org/1999/xlink" x="0px" y="0px"
	 viewBox="0 0 500 500" style="enable-background:new 0 0 500 500;" xml:space="preserve">
<g id="BACKGROUND">
	<rect style="fill:#F8EFE0;" width="500" height="500"/>
</g>
<g id="OBJECTS">
	<g>
		<path style="fill:#E3CDBB;" d="M30.009,381.639c-0.933-26.776,6.951-55.016,27.245-73.609c12.64-11.581,29.63-19.142,39.09-33.2
			c10.406-15.464,9.384-35.145,12.319-53.288c5.389-33.316,25.751-64.019,54.451-83.82c28.699-19.801,65.292-28.681,100.584-25.379
			c11.687,1.094,23.401,3.524,33.76,8.779c22.196,11.26,35.361,33.91,43.398,56.572c13.599,38.346,16.686,81.201,41.481,114.096
			c12.71,16.861,30.346,29.889,43.419,46.497c23.584,29.961,30.352,68.974,31.021,106.387c0.049,2.746-0.08,5.841-2.204,7.704
			c-1.913,1.678-4.786,1.761-7.388,1.751c-70.213-0.293-140.487-0.587-210.527-5.276c-23.17-1.551-46.362-3.584-69.581-2.979
			c-33.749,0.88-74.45,13.027-107.706,5.585C32.395,445.423,30.757,403.126,30.009,381.639z"/>
		<path style="fill:#DBBCA5;" d="M462.51,471.538H37.49c-6.637,0-12.018-5.381-12.018-12.018l0,0
			c0-6.637,5.381-12.018,12.018-12.018h425.02c6.637,0,12.018,5.381,12.018,12.018l0,0
			C474.528,466.157,469.147,471.538,462.51,471.538z"/>
		<g>
			<g>
				<g>
					<g>
						<path style="fill:#6B671F;" d="M301.618,341.81c-6.592-8.053-14.612-11.549-19.761-23.068
							c-5.314-11.886-5.846-28.876-11.947-39.317c-3.655-6.256-8.225-8.268-12.434-10.658c-2.207-1.253-4.439-2.595-6.577-4.733
							c-1.888-1.888-4.016-5.837-5.935-6.961c0.606,2.828,1.45,5.514,1.799,8.434c0.395,3.304,0.671,6.757,1.839,9.832
							c2.511,6.611,7.228,7.076,10.831,11.331c5.503,6.497,7.219,20.167,7.151,30.999s-1.009,22.103,2.036,32.873
							c2.443,8.639,7.007,15.068,11.564,19.521c4.145,4.049,8.477,6.878,12.753,8.327c2.732,0.926,5.517,1.337,8.181,3.818
							c3.455,3.219,6.21,9.534,8.021,16.064s2.831,13.396,4.018,20.164c0.513,2.925,1.132,6.052,2.41,8.247
							c2.778,4.77,6.498,1.858,8.133-2.73c4.365-12.244,0.635-30.141-4.468-44.356C314.552,366.559,308.647,350.397,301.618,341.81z
							"/>
						<path style="fill:none;stroke:#A2A34A;stroke-miterlimit:10;" d="M244.964,257.073c5.165,17.477,18.93,12.004,23.158,32.061
							c4.228,20.057,0.923,53.152,21.251,65.155c20.328,12.003,30.812,40.235,34.177,58.964"/>
					</g>
				</g>
				<g>
					<path style="fill:#7F7D2A;" d="M312.208,318.574c-6.431-8.183-14.379-11.837-19.299-23.456
						c-5.077-11.99-5.272-28.986-11.164-39.547c-3.53-6.327-8.06-8.43-12.22-10.902c-2.181-1.296-4.387-2.682-6.482-4.862
						c-1.85-1.925-3.899-5.916-5.796-7.078c0.55,2.84,1.34,5.542,1.631,8.468c0.329,3.311,0.537,6.769,1.643,9.867
						c2.379,6.66,7.086,7.218,10.604,11.543c5.373,6.605,6.818,20.307,6.535,31.135c-0.283,10.828-1.448,22.078,1.383,32.907
						c2.271,8.686,6.706,15.204,11.174,19.747c4.064,4.131,8.339,7.045,12.586,8.579c2.713,0.98,5.49,1.446,8.104,3.98
						c3.391,3.287,6.02,9.655,7.701,16.22c1.681,6.565,2.565,13.45,3.617,20.239c0.454,2.934,1.011,6.073,2.245,8.293
						c2.683,4.824,6.46,1.986,8.185-2.568c4.607-12.155,1.233-30.122-3.587-44.436C324.648,343.575,319.066,327.299,312.208,318.574
						z"/>
					<path style="fill:none;stroke:#A2A34A;stroke-miterlimit:10;" d="M257.247,232.729c4.817,17.576,18.688,12.378,22.517,32.515
						c3.829,20.137-0.133,53.16,19.953,65.564c20.086,12.404,30.007,40.839,33,59.631"/>
				</g>
			</g>
			<g>
				<g>
					<g>
						<path style="fill:#6B671F;" d="M402.176,318.689c8.699-5.714,17.397-6.651,25.755-16.104
							c8.625-9.753,14.214-25.806,23.158-33.945c5.359-4.877,10.322-5.43,15.052-6.452c2.48-0.536,5.012-1.148,7.691-2.549
							c2.366-1.237,5.578-4.37,7.745-4.868c-1.424,2.518-3.033,4.828-4.238,7.51c-1.365,3.035-2.661,6.247-4.695,8.832
							c-4.373,5.558-9.013,4.591-13.724,7.573c-7.194,4.554-12.92,17.086-16.094,27.442c-3.174,10.356-5.647,21.393-11.773,30.76
							c-4.914,7.514-11.192,12.284-16.873,15.17c-5.166,2.625-10.146,4.029-14.66,4.132c-2.884,0.066-5.664-0.374-8.949,1.197
							c-4.26,2.039-8.777,7.24-12.458,12.93c-3.681,5.69-6.707,11.937-9.863,18.04c-1.364,2.638-2.889,5.437-4.765,7.149
							c-4.077,3.721-6.756-0.171-6.944-5.037c-0.503-12.989,8.407-28.951,17.528-40.99
							C382.433,338.438,392.9,324.782,402.176,318.689z"/>
						<path style="fill:none;stroke:#A2A34A;stroke-miterlimit:10;" d="M481.577,254.771c-10.155,15.133-21.654,5.794-31.686,23.669
							c-10.032,17.875-16.775,50.444-39.762,55.819c-22.987,5.375-41.434,29.18-50.245,46.046"/>
					</g>
				</g>
				<g>
					<path style="fill:#7F7D2A;" d="M401.822,282.89c6.431-8.183,14.38-11.837,19.299-23.456
						c5.077-11.99,5.272-28.986,11.164-39.547c3.53-6.327,8.06-8.43,12.219-10.902c2.182-1.296,4.387-2.682,6.482-4.862
						c1.85-1.925,3.899-5.916,5.796-7.078c-0.55,2.84-1.34,5.542-1.631,8.468c-0.329,3.311-0.537,6.769-1.643,9.867
						c-2.379,6.66-7.086,7.218-10.604,11.543c-5.373,6.605-6.818,20.307-6.535,31.135c0.283,10.828,1.448,22.078-1.383,32.907
						c-2.271,8.686-6.706,15.204-11.174,19.747c-4.063,4.131-8.339,7.045-12.586,8.579c-2.713,0.98-5.49,1.446-8.104,3.98
						c-3.391,3.287-6.02,9.655-7.701,16.22c-1.681,6.565-2.565,13.45-3.617,20.24c-0.455,2.934-1.011,6.073-2.246,8.293
						c-2.683,4.824-6.46,1.986-8.185-2.568c-4.607-12.155-1.233-30.122,3.587-44.436
						C389.382,307.891,394.965,291.615,401.822,282.89z"/>
					<path style="fill:none;stroke:#A2A34A;stroke-miterlimit:10;" d="M456.783,197.045c-4.817,17.576-18.688,12.377-22.517,32.514
						c-3.829,20.137,0.133,53.16-19.953,65.564c-20.086,12.404-30.007,40.839-33,59.631"/>
				</g>
			</g>
		</g>
		<g>
			<polygon style="fill:#AF4700;" points="437.073,124.136 418.596,394.134 299.154,394.134 280.677,124.136 			"/>
			<polygon style="opacity:0.41;fill:#CC6017;" points="437.073,124.136 418.596,394.134 358.871,394.134 358.871,124.136 			"/>
			<rect x="273.476" y="114.671" style="fill:#CC6017;" width="170.798" height="17.51"/>
			<rect x="369.791" y="114.671" style="fill:#AF4B08;" width="74.483" height="17.51"/>
			<rect x="289.059" y="377.972" style="fill:#CC6017;" width="139.631" height="17.51"/>
			<rect x="364.781" y="377.972" style="fill:#AF4B08;" width="63.909" height="17.51"/>
			<g>
				<path style="fill:#EA9B1C;" d="M403.122,221.812c0,40.251-44.251,72.364-44.251,72.364s-44.252-32.112-44.252-72.364
					l18.689-10.227l2.892-14.218l22.671-4.795l22.67,4.795l2.892,14.218L403.122,221.812z"/>
				<path style="fill:#CC6017;" d="M393.516,225.084c0,32.297-34.646,58.064-34.646,58.064s-34.646-25.767-34.646-58.064
					l14.632-8.206l2.264-11.408l17.749-3.847l17.749,3.847l2.264,11.408L393.516,225.084z"/>
				
					<ellipse transform="matrix(0.2298 -0.9732 0.9732 0.2298 46.7473 531.0367)" style="fill:#F4AD47;" cx="358.87" cy="235.985" rx="19.406" ry="19.406"/>
				
					<ellipse transform="matrix(0.2298 -0.9732 0.9732 0.2298 46.7473 531.0368)" style="fill:#EA9B1C;" cx="358.87" cy="235.985" rx="15.128" ry="15.128"/>
				<path style="opacity:0.41;fill:#CC6017;" d="M403.122,221.812c0,40.251-44.251,72.364-44.251,72.364V192.573l22.67,4.795
					l2.892,14.218L403.122,221.812z"/>
			</g>
		</g>
		<g>
			<g>
				<g>
					<path style="fill:#CC6017;" d="M141.489,444.779v7.466c0,5.335-18.837,9.655-42.065,9.655c-23.243,0-42.079-4.319-42.079-9.655
						v-7.466h15.404c7.252-1.359,16.549-2.188,26.675-2.188c10.127,0,19.409,0.83,26.675,2.188H141.489z"/>
				</g>
			</g>
			<g>
				<defs>
					<path id="SVGID_1_" d="M141.489,444.779v7.466c0,5.335-18.837,9.655-42.065,9.655c-23.243,0-42.079-4.319-42.079-9.655v-7.466
						h15.404c7.252-1.359,16.549-2.188,26.675-2.188c10.127,0,19.409,0.83,26.675,2.188H141.489z"/>
				</defs>
				<clipPath id="SVGID_00000064318245555348602250000000885691111525532289_">
					<use xlink:href="#SVGID_1_"  style="overflow:visible;"/>
				</clipPath>
				
					<rect x="58.961" y="441.272" style="clip-path:url(#SVGID_00000064318245555348602250000000885691111525532289_);fill:#EA843F;" width="1.324" height="24.959"/>
				
					<rect x="66.921" y="441.272" style="clip-path:url(#SVGID_00000064318245555348602250000000885691111525532289_);fill:#EA843F;" width="1.324" height="24.959"/>
				
					<rect x="74.88" y="441.272" style="clip-path:url(#SVGID_00000064318245555348602250000000885691111525532289_);fill:#EA843F;" width="1.324" height="24.959"/>
				
					<rect x="82.84" y="441.272" style="clip-path:url(#SVGID_00000064318245555348602250000000885691111525532289_);fill:#EA843F;" width="1.324" height="24.959"/>
				
					<rect x="90.799" y="441.272" style="clip-path:url(#SVGID_00000064318245555348602250000000885691111525532289_);fill:#EA843F;" width="1.324" height="24.959"/>
				
					<rect x="98.759" y="441.272" style="clip-path:url(#SVGID_00000064318245555348602250000000885691111525532289_);fill:#EA843F;" width="1.324" height="24.959"/>
				
					<rect x="106.718" y="441.272" style="clip-path:url(#SVGID_00000064318245555348602250000000885691111525532289_);fill:#EA843F;" width="1.324" height="24.959"/>
				
					<rect x="114.678" y="441.272" style="clip-path:url(#SVGID_00000064318245555348602250000000885691111525532289_);fill:#EA843F;" width="1.324" height="24.959"/>
				
					<rect x="122.637" y="441.272" style="clip-path:url(#SVGID_00000064318245555348602250000000885691111525532289_);fill:#EA843F;" width="1.324" height="24.959"/>
				
					<rect x="130.597" y="441.272" style="clip-path:url(#SVGID_00000064318245555348602250000000885691111525532289_);fill:#EA843F;" width="1.324" height="24.959"/>
				
					<rect x="138.556" y="441.272" style="clip-path:url(#SVGID_00000064318245555348602250000000885691111525532289_);fill:#EA843F;" width="1.324" height="24.959"/>
			</g>
			<ellipse style="fill:#EA9B1C;" cx="99.42" cy="444.78" rx="42.075" ry="9.654"/>
			<ellipse style="fill:#CC6017;" cx="99.42" cy="444.78" rx="32.525" ry="7.463"/>
			<path style="opacity:0.61;fill:#CC6017;" d="M99.42,451.048c-15.085,0-27.314-2.806-27.314-6.267
				c0-3.461,12.229-6.267,27.314-6.267c15.085,0,27.314,2.806,27.314,6.267C126.734,448.242,114.505,451.048,99.42,451.048z"/>
		</g>
		<g>
			<g>
				<g>
					<path style="fill:#CC6017;" d="M146.054,434.779v7.466c0,5.335-18.837,9.655-42.066,9.655c-23.242,0-42.079-4.32-42.079-9.655
						v-7.466h15.404c7.252-1.359,16.549-2.188,26.675-2.188c10.127,0,19.409,0.83,26.675,2.188H146.054z"/>
				</g>
			</g>
			<g>
				<defs>
					<path id="SVGID_00000132048861881274402190000006227176845015306665_" d="M146.054,434.779v7.466
						c0,5.335-18.837,9.655-42.066,9.655c-23.242,0-42.079-4.32-42.079-9.655v-7.466h15.404c7.252-1.359,16.549-2.188,26.675-2.188
						c10.127,0,19.409,0.83,26.675,2.188H146.054z"/>
				</defs>
				<clipPath id="SVGID_00000088824683854858659850000017059793145030933653_">
					<use xlink:href="#SVGID_00000132048861881274402190000006227176845015306665_"  style="overflow:visible;"/>
				</clipPath>
				
					<rect x="63.526" y="431.273" style="clip-path:url(#SVGID_00000088824683854858659850000017059793145030933653_);fill:#EA843F;" width="1.324" height="24.959"/>
				
					<rect x="71.485" y="431.273" style="clip-path:url(#SVGID_00000088824683854858659850000017059793145030933653_);fill:#EA843F;" width="1.324" height="24.959"/>
				
					<rect x="79.445" y="431.273" style="clip-path:url(#SVGID_00000088824683854858659850000017059793145030933653_);fill:#EA843F;" width="1.324" height="24.959"/>
				
					<rect x="87.404" y="431.273" style="clip-path:url(#SVGID_00000088824683854858659850000017059793145030933653_);fill:#EA843F;" width="1.324" height="24.959"/>
				
					<rect x="95.364" y="431.273" style="clip-path:url(#SVGID_00000088824683854858659850000017059793145030933653_);fill:#EA843F;" width="1.324" height="24.959"/>
				
					<rect x="103.323" y="431.273" style="clip-path:url(#SVGID_00000088824683854858659850000017059793145030933653_);fill:#EA843F;" width="1.324" height="24.959"/>
				
					<rect x="111.283" y="431.273" style="clip-path:url(#SVGID_00000088824683854858659850000017059793145030933653_);fill:#EA843F;" width="1.324" height="24.959"/>
				
					<rect x="119.242" y="431.273" style="clip-path:url(#SVGID_00000088824683854858659850000017059793145030933653_);fill:#EA843F;" width="1.324" height="24.959"/>
				
					<rect x="127.202" y="431.273" style="clip-path:url(#SVGID_00000088824683854858659850000017059793145030933653_);fill:#EA843F;" width="1.324" height="24.959"/>
				
					<rect x="135.161" y="431.273" style="clip-path:url(#SVGID_00000088824683854858659850000017059793145030933653_);fill:#EA843F;" width="1.324" height="24.959"/>
				
					<rect x="143.121" y="431.273" style="clip-path:url(#SVGID_00000088824683854858659850000017059793145030933653_);fill:#EA843F;" width="1.324" height="24.959"/>
			</g>
			<ellipse style="fill:#EA9B1C;" cx="103.985" cy="434.781" rx="42.075" ry="9.654"/>
			<ellipse style="fill:#CC6017;" cx="103.985" cy="434.781" rx="32.525" ry="7.463"/>
			<path style="opacity:0.61;fill:#CC6017;" d="M103.985,441.048c-15.085,0-27.314-2.806-27.314-6.267
				c0-3.461,12.229-6.267,27.314-6.267c15.085,0,27.314,2.806,27.314,6.267C131.299,438.242,119.07,441.048,103.985,441.048z"/>
		</g>
		<g>
			<g>
				<g>
					<path style="fill:#CC6017;" d="M158.051,424.78v7.466c0,5.335-18.837,9.655-42.065,9.655c-23.243,0-42.079-4.319-42.079-9.655
						v-7.466h15.404c7.252-1.359,16.549-2.188,26.675-2.188c10.127,0,19.409,0.83,26.675,2.188H158.051z"/>
				</g>
			</g>
			<g>
				<defs>
					<path id="SVGID_00000180344105857301159890000006669499837678226615_" d="M158.051,424.78v7.466
						c0,5.335-18.837,9.655-42.065,9.655c-23.243,0-42.079-4.319-42.079-9.655v-7.466h15.404c7.252-1.359,16.549-2.188,26.675-2.188
						c10.127,0,19.409,0.83,26.675,2.188H158.051z"/>
				</defs>
				<clipPath id="SVGID_00000130611787875367964580000015246669369881152950_">
					<use xlink:href="#SVGID_00000180344105857301159890000006669499837678226615_"  style="overflow:visible;"/>
				</clipPath>
				
					<rect x="75.523" y="421.274" style="clip-path:url(#SVGID_00000130611787875367964580000015246669369881152950_);fill:#EA843F;" width="1.324" height="24.959"/>
				
					<rect x="83.483" y="421.274" style="clip-path:url(#SVGID_00000130611787875367964580000015246669369881152950_);fill:#EA843F;" width="1.324" height="24.959"/>
				
					<rect x="91.442" y="421.274" style="clip-path:url(#SVGID_00000130611787875367964580000015246669369881152950_);fill:#EA843F;" width="1.324" height="24.959"/>
				
					<rect x="99.402" y="421.274" style="clip-path:url(#SVGID_00000130611787875367964580000015246669369881152950_);fill:#EA843F;" width="1.324" height="24.959"/>
				
					<rect x="107.361" y="421.274" style="clip-path:url(#SVGID_00000130611787875367964580000015246669369881152950_);fill:#EA843F;" width="1.324" height="24.959"/>
				
					<rect x="115.321" y="421.274" style="clip-path:url(#SVGID_00000130611787875367964580000015246669369881152950_);fill:#EA843F;" width="1.324" height="24.959"/>
				
					<rect x="123.28" y="421.274" style="clip-path:url(#SVGID_00000130611787875367964580000015246669369881152950_);fill:#EA843F;" width="1.324" height="24.959"/>
				
					<rect x="131.24" y="421.274" style="clip-path:url(#SVGID_00000130611787875367964580000015246669369881152950_);fill:#EA843F;" width="1.324" height="24.959"/>
				
					<rect x="139.199" y="421.274" style="clip-path:url(#SVGID_00000130611787875367964580000015246669369881152950_);fill:#EA843F;" width="1.324" height="24.959"/>
				
					<rect x="147.159" y="421.274" style="clip-path:url(#SVGID_00000130611787875367964580000015246669369881152950_);fill:#EA843F;" width="1.324" height="24.959"/>
				
					<rect x="155.118" y="421.274" style="clip-path:url(#SVGID_00000130611787875367964580000015246669369881152950_);fill:#EA843F;" width="1.324" height="24.959"/>
			</g>
			<ellipse style="fill:#EA9B1C;" cx="115.983" cy="424.782" rx="42.075" ry="9.654"/>
			<ellipse style="fill:#CC6017;" cx="115.983" cy="424.782" rx="32.525" ry="7.463"/>
			<path style="opacity:0.61;fill:#CC6017;" d="M115.982,431.049c-15.085,0-27.314-2.806-27.314-6.267
				c0-3.461,12.229-6.267,27.314-6.267c15.085,0,27.314,2.806,27.314,6.267C143.296,428.243,131.068,431.049,115.982,431.049z"/>
		</g>
		<g>
			<g>
				<g>
					<path style="fill:#CC6017;" d="M124.912,414.78v7.466c0,5.335-18.837,9.655-42.065,9.655c-23.242,0-42.079-4.319-42.079-9.655
						v-7.466h15.404c7.252-1.359,16.549-2.188,26.675-2.188c10.127,0,19.409,0.83,26.675,2.188H124.912z"/>
				</g>
			</g>
			<g>
				<defs>
					<path id="SVGID_00000021827381584278437360000004303835044967628672_" d="M124.912,414.78v7.466
						c0,5.335-18.837,9.655-42.065,9.655c-23.242,0-42.079-4.319-42.079-9.655v-7.466h15.404c7.252-1.359,16.549-2.188,26.675-2.188
						c10.127,0,19.409,0.83,26.675,2.188H124.912z"/>
				</defs>
				<clipPath id="SVGID_00000127008862538187000910000012989334950917738899_">
					<use xlink:href="#SVGID_00000021827381584278437360000004303835044967628672_"  style="overflow:visible;"/>
				</clipPath>
				
					<rect x="42.384" y="411.274" style="clip-path:url(#SVGID_00000127008862538187000910000012989334950917738899_);fill:#EA843F;" width="1.324" height="24.959"/>
				
					<rect x="50.344" y="411.274" style="clip-path:url(#SVGID_00000127008862538187000910000012989334950917738899_);fill:#EA843F;" width="1.324" height="24.959"/>
				
					<rect x="58.303" y="411.274" style="clip-path:url(#SVGID_00000127008862538187000910000012989334950917738899_);fill:#EA843F;" width="1.324" height="24.959"/>
				
					<rect x="66.263" y="411.274" style="clip-path:url(#SVGID_00000127008862538187000910000012989334950917738899_);fill:#EA843F;" width="1.324" height="24.959"/>
				
					<rect x="74.222" y="411.274" style="clip-path:url(#SVGID_00000127008862538187000910000012989334950917738899_);fill:#EA843F;" width="1.324" height="24.959"/>
				
					<rect x="82.182" y="411.274" style="clip-path:url(#SVGID_00000127008862538187000910000012989334950917738899_);fill:#EA843F;" width="1.324" height="24.959"/>
				
					<rect x="90.141" y="411.274" style="clip-path:url(#SVGID_00000127008862538187000910000012989334950917738899_);fill:#EA843F;" width="1.324" height="24.959"/>
				
					<rect x="98.101" y="411.274" style="clip-path:url(#SVGID_00000127008862538187000910000012989334950917738899_);fill:#EA843F;" width="1.324" height="24.959"/>
				
					<rect x="106.06" y="411.274" style="clip-path:url(#SVGID_00000127008862538187000910000012989334950917738899_);fill:#EA843F;" width="1.324" height="24.959"/>
				
					<rect x="114.02" y="411.274" style="clip-path:url(#SVGID_00000127008862538187000910000012989334950917738899_);fill:#EA843F;" width="1.324" height="24.959"/>
				
					<rect x="121.979" y="411.274" style="clip-path:url(#SVGID_00000127008862538187000910000012989334950917738899_);fill:#EA843F;" width="1.324" height="24.959"/>
			</g>
			<ellipse style="fill:#EA9B1C;" cx="82.843" cy="414.782" rx="42.075" ry="9.654"/>
			<ellipse style="fill:#CC6017;" cx="82.843" cy="414.782" rx="32.525" ry="7.463"/>
			<path style="opacity:0.61;fill:#CC6017;" d="M82.843,421.049c-15.085,0-27.314-2.806-27.314-6.267s12.229-6.267,27.314-6.267
				c15.085,0,27.314,2.806,27.314,6.267S97.928,421.049,82.843,421.049z"/>
		</g>
		<g>
			<polygon style="fill:#3575A0;" points="93.271,270.102 87.907,402.377 97.041,402.377 97.041,272.661 			"/>
			<g>
				<g>
					<polyline style="fill:none;stroke:#000000;stroke-miterlimit:10;" points="127.893,345.423 149.419,273.365 149.367,273.365 
						170.892,345.423 					"/>
					<path style="fill:#215681;" d="M127.893,345.423c0,1.66,5.607,15.03,21.473,15.03c15.866,0,21.473-13.371,21.473-15.03
						c0-1.66-13.333-3.005-21.473-3.005C141.226,342.417,127.893,343.763,127.893,345.423z"/>
					<path style="fill:#122026;" d="M127.893,345.423c0,1.66,13.332,3.006,21.473,3.006c8.141,0,21.473-1.346,21.473-3.006
						c0-1.66-13.333-3.005-21.473-3.005C141.226,342.417,127.893,343.763,127.893,345.423z"/>
					<path style="fill:#EA9B1C;" d="M169.425,345.423c0,0.781,0.633,1.415,1.415,1.415c0.781,0,1.414-0.633,1.414-1.415
						c0-0.781-0.633-1.414-1.414-1.414C170.058,344.008,169.425,344.642,169.425,345.423z"/>
					<path style="fill:#EA9B1C;" d="M126.479,345.423c0,0.781,0.633,1.415,1.414,1.415c0.781,0,1.414-0.633,1.414-1.415
						c0-0.781-0.633-1.414-1.414-1.414C127.112,344.008,126.479,344.642,126.479,345.423z"/>
				</g>
				<polygon style="fill:#215681;" points="100.812,270.102 106.176,402.377 97.041,402.377 97.041,272.661 				"/>
				<polygon style="fill:#EA9B1C;" points="147.48,271.877 147.48,276.054 46.606,276.054 46.606,271.877 93.784,256.591 
					100.302,256.591 				"/>
				<polygon style="opacity:0.16;fill:#CC6017;" points="147.479,271.875 147.479,276.055 46.609,276.055 46.609,271.875 
					55.749,268.915 138.339,268.915 				"/>
				<g>
					<circle style="fill:#D3492A;" cx="97.041" cy="262.41" r="10.955"/>
					<path style="fill:#EA9B1C;" d="M92.173,262.41c0,2.689,2.18,4.868,4.868,4.868c2.688,0,4.868-2.18,4.868-4.868
						s-2.18-4.868-4.868-4.868C94.353,257.542,92.173,259.721,92.173,262.41z"/>
				</g>
				<g>
					<path style="fill:#D3492A;" d="M142.023,273.365c0,4.056,3.288,7.344,7.344,7.344c4.056,0,7.344-3.288,7.344-7.344
						c0-4.056-3.288-7.344-7.344-7.344C145.311,266.021,142.023,269.309,142.023,273.365z"/>
					<path style="fill:#EA9B1C;" d="M146.103,273.365c0,1.802,1.461,3.263,3.264,3.263c1.802,0,3.263-1.461,3.263-3.263
						c0-1.802-1.461-3.263-3.263-3.263C147.564,270.102,146.103,271.563,146.103,273.365z"/>
				</g>
			</g>
			<path style="fill:#3575A0;" d="M122.26,408.455H71.823v-1.611c0-2.944,2.387-5.331,5.331-5.331h39.776
				c2.944,0,5.331,2.387,5.331,5.331V408.455z"/>
			<path style="fill:#215681;" d="M122.259,406.845v1.61h-50.44v-1.61c0-0.34,0.03-0.68,0.1-1h50.24
				C122.229,406.165,122.259,406.505,122.259,406.845z"/>
			<path style="fill:#3575A0;" d="M129.75,417.079H64.334v-3.673c0-2.944,2.387-5.331,5.331-5.331h54.754
				c2.944,0,5.331,2.387,5.331,5.331V417.079z"/>
			<path style="fill:#215681;" d="M129.748,414.99v2.088H64.329v-2.088c0-0.441,0.039-0.882,0.13-1.297h65.16
				C129.709,414.108,129.748,414.549,129.748,414.99z"/>
			<path style="fill:#EA9B1C;" d="M110.089,401.513H83.996v-52.839c0-2.577,2.089-4.665,4.665-4.665h16.762
				c2.577,0,4.665,2.089,4.665,4.665V401.513z"/>
			<path style="opacity:0.41;fill:#CC6017;" d="M110.089,348.675v52.84h-10.7v-52.84c0-2.58-2.09-4.67-4.66-4.67h10.7
				C107.999,344.005,110.089,346.095,110.089,348.675z"/>
			<rect x="83.996" y="395.951" style="opacity:0.41;fill:#CC6017;" width="26.092" height="5.562"/>
			<g>
				<polyline style="fill:none;stroke:#000000;stroke-miterlimit:10;" points="66.189,345.423 44.664,273.365 44.716,273.365 
					23.191,345.423 				"/>
				<path style="fill:#215681;" d="M66.189,345.423c0,1.66-5.607,15.03-21.473,15.03c-15.866,0-21.473-13.371-21.473-15.03
					c0-1.66,13.332-3.005,21.473-3.005C52.857,342.417,66.189,343.763,66.189,345.423z"/>
				<path style="fill:#122026;" d="M66.189,345.423c0,1.66-13.332,3.006-21.473,3.006c-8.141,0-21.473-1.346-21.473-3.006
					c0-1.66,13.332-3.005,21.473-3.005C52.857,342.417,66.189,343.763,66.189,345.423z"/>
				<path style="fill:#EA9B1C;" d="M24.658,345.423c0,0.781-0.633,1.415-1.415,1.415c-0.781,0-1.414-0.633-1.414-1.415
					c0-0.781,0.633-1.414,1.414-1.414C24.024,344.008,24.658,344.642,24.658,345.423z"/>
				<path style="fill:#EA9B1C;" d="M67.604,345.423c0,0.781-0.633,1.415-1.414,1.415c-0.781,0-1.414-0.633-1.414-1.415
					c0-0.781,0.633-1.414,1.414-1.414C66.971,344.008,67.604,344.642,67.604,345.423z"/>
			</g>
			<g>
				<path style="fill:#D3492A;" d="M52.06,273.365c0,4.056-3.288,7.344-7.344,7.344s-7.344-3.288-7.344-7.344
					c0-4.056,3.288-7.344,7.344-7.344S52.06,269.309,52.06,273.365z"/>
				<path style="fill:#EA9B1C;" d="M47.98,273.365c0,1.802-1.461,3.263-3.263,3.263c-1.802,0-3.264-1.461-3.264-3.263
					c0-1.802,1.461-3.263,3.264-3.263C46.519,270.102,47.98,271.563,47.98,273.365z"/>
			</g>
		</g>
		<g>
			<g>
				<path style="fill:#EA9B1C;" d="M438.579,464.841H275.945c-6.36,0-11.516-5.156-11.516-11.516v-11.645
					c0-6.36,5.156-11.516,11.516-11.516h162.634c1.165,0,2.11,0.945,2.11,2.11v30.457
					C440.689,463.896,439.744,464.841,438.579,464.841z"/>
				<path style="opacity:0.5;fill:#FFFFFF;" d="M299.353,464.844h-9.862c-6.568,0-11.886-5.318-11.886-11.886v-10.913
					c0-6.568,5.318-11.886,11.886-11.886h9.862c-6.556,0-11.873,5.318-11.873,11.886v10.913
					C287.48,459.526,292.798,464.844,299.353,464.844z"/>
				<path style="opacity:0.5;fill:#FFFFFF;" d="M322.091,464.844h-9.862c-6.568,0-11.886-5.318-11.886-11.886v-10.913
					c0-6.568,5.318-11.886,11.886-11.886h9.862c-6.556,0-11.873,5.318-11.873,11.886v10.913
					C310.217,459.526,315.535,464.844,322.091,464.844z"/>
				<path style="opacity:0.5;fill:#FFFFFF;" d="M344.828,464.844h-9.862c-6.568,0-11.886-5.318-11.886-11.886v-10.913
					c0-6.568,5.318-11.886,11.886-11.886h9.862c-6.555,0-11.873,5.318-11.873,11.886v10.913
					C332.955,459.526,338.273,464.844,344.828,464.844z"/>
				<path style="opacity:0.3;fill:#D3492A;" d="M399.266,447.501v17.343H276.314c-6.568,0-11.886-5.318-11.886-11.886v-5.457
					H399.266z"/>
				<path style="fill:#F2A940;" d="M440.689,464.841h-78.724c-5.195,0-9.406-4.211-9.406-9.406v-15.866
					c0-5.195,4.211-9.406,9.406-9.406h78.724V464.841z"/>
				<g>
					<path style="fill:#F8EFE0;" d="M364.44,458.525c-3.069,0-5.566-2.497-5.566-5.566v-10.915c0-3.069,2.497-5.566,5.566-5.566
						h76.249v22.047H364.44z"/>
				</g>
			</g>
			<rect x="371.511" y="441.2" style="opacity:0.39;fill:#E3CDBB;" width="69.177" height="3.329"/>
			<rect x="371.511" y="450.474" style="opacity:0.39;fill:#E3CDBB;" width="69.177" height="3.329"/>
		</g>
		<g>
			<g>
				<path style="fill:#D3492A;" d="M266.539,430.16h162.634c6.36,0,11.516-5.156,11.516-11.516v-11.645
					c0-6.36-5.156-11.516-11.516-11.516H266.539c-1.165,0-2.11,0.945-2.11,2.11v30.457
					C264.428,429.215,265.373,430.16,266.539,430.16z"/>
				<path style="opacity:0.5;fill:#FFFFFF;" d="M405.764,430.163h9.862c6.568,0,11.886-5.318,11.886-11.886v-10.913
					c0-6.568-5.318-11.886-11.886-11.886h-9.862c6.556,0,11.873,5.318,11.873,11.886v10.913
					C417.637,424.845,412.32,430.163,405.764,430.163z"/>
				<path style="opacity:0.5;fill:#FFFFFF;" d="M383.027,430.163h9.862c6.568,0,11.886-5.318,11.886-11.886v-10.913
					c0-6.568-5.318-11.886-11.886-11.886h-9.862c6.556,0,11.873,5.318,11.873,11.886v10.913
					C394.9,424.845,389.582,430.163,383.027,430.163z"/>
				<path style="opacity:0.5;fill:#FFFFFF;" d="M360.289,430.163h9.862c6.568,0,11.886-5.318,11.886-11.886v-10.913
					c0-6.568-5.318-11.886-11.886-11.886h-9.862c6.555,0,11.873,5.318,11.873,11.886v10.913
					C372.162,424.845,366.845,430.163,360.289,430.163z"/>
				<path style="opacity:0.3;fill:#7F7D2A;" d="M305.852,412.82v17.342h122.952c6.568,0,11.886-5.318,11.886-11.886v-5.457H305.852z
					"/>
				<path style="fill:#E5543C;" d="M264.428,430.16h78.724c5.195,0,9.406-4.211,9.406-9.406v-15.866
					c0-5.195-4.211-9.406-9.406-9.406h-78.724V430.16z"/>
				<g>
					<path style="fill:#F8EFE0;" d="M340.677,423.844c3.069,0,5.566-2.497,5.566-5.566v-10.915c0-3.069-2.497-5.566-5.566-5.566
						h-76.249v22.047H340.677z"/>
				</g>
			</g>
			
				<rect x="264.428" y="406.519" transform="matrix(-1 -1.224647e-16 1.224647e-16 -1 598.0346 816.3671)" style="opacity:0.39;fill:#E3CDBB;" width="69.178" height="3.329"/>
			
				<rect x="264.428" y="415.793" transform="matrix(-1 -1.224647e-16 1.224647e-16 -1 598.0346 834.9143)" style="opacity:0.39;fill:#E3CDBB;" width="69.178" height="3.329"/>
		</g>
		<g id="g479383_00000152972483371242837310000010450752921874304180_" transform="translate(-27.089776,-4.5406787)">
			<path id="path482668_00000098184925039578702800000005243431296485649579_" d="M279.145,426.671c0,0,0,11.611,2.545,15.555
				c2.545,3.944,23.853,14.534,26.766,16.768c2.913,2.234,3.648,7.64,3.648,7.64s-10.153,3.023-22.473,2.703
				c-7.42-0.193-7.834-3.985-11.911-5.64c-4.078-1.655-5.595-0.952-5.595-0.952l-0.092,4.44l-13.092-0.8
				c0,0-1.301-4.997,0.797-11.652c1.196-3.792,2.177-7.708,1.226-12.728c-0.951-5.02-2.085-15.693-2.085-15.693L279.145,426.671z"/>
			<path id="path479885_00000073699678460060814950000015546644226263042219_" d="M150.713,424.019c0,0,0,11.611-2.545,15.555
				c-2.545,3.944-23.853,14.534-26.766,16.768c-2.912,2.234-3.648,7.639-3.648,7.639s10.152,3.023,22.473,2.703
				c7.42-0.193,7.834-3.985,11.911-5.64c4.078-1.655,5.595-0.952,5.595-0.952l0.092,4.44l13.092-0.8c0,0,1.301-4.997-0.797-11.652
				c-1.196-3.792-2.177-7.708-1.227-12.728c0.951-5.02,2.085-15.693,2.085-15.693L150.713,424.019z"/>
			<path id="path464904_00000047762948647575841220000013610527829841740942_" style="fill:#FDC099;" d="M341.089,172.15
				c0,0,3.427-3.886,5.741-5.82c2.314-1.934,8.709-5.012,11-4.074c2.291,0.938,2.867,2.309,2.017,4.076
				c-0.849,1.768,0.313,2.199,0.669,4.013c0.356,1.814,0,3.819,0,3.819s0.851,0.247,0.902,2.462
				c0.052,2.215-15.763,6.048-15.763,6.048L341.089,172.15z"/>
			<path id="path479385_00000178902420189725544330000006812864219380123049_" style="fill:#F8EFE0;" d="M330.744,173.105
				l10.486-3.558c0,0,8.247,6.205,8.83,14.948c-9.811,7.309-15.636,9.019-15.636,9.019L330.744,173.105z"/>
			<g id="g472704_00000154403182141201908260000010990228868886539914_" transform="rotate(11.958849,2649.0774,-435.32104)">
				<g>
					<path id="rect464908_00000054978304948232384240000003405342626159392688_" style="fill:#9C3A24;" d="M239.336,625.715
						l44.212,6.544c2.568,0.38,4.341,2.77,3.961,5.338l-3.141,21.225c-0.38,2.568-2.77,4.341-5.338,3.962l-44.213-6.544
						c-2.568-0.38-4.341-2.77-3.961-5.338l3.141-21.225C234.378,627.109,236.767,625.335,239.336,625.715z"/>
					<path id="path464910_00000026128669140990011680000011859312381427084986_" style="fill:#F48134;" d="M242.844,625.006
						c-0.848-0.126-1.633,0.458-1.759,1.305l-4.391,29.669c-0.125,0.848,0.458,1.63,1.306,1.755l1.721,0.255
						c0.848,0.125,1.63-0.455,1.755-1.303l4.391-29.669c0.125-0.847-0.455-1.633-1.302-1.758L242.844,625.006z M278.678,630.31
						c-0.848-0.125-1.63,0.458-1.756,1.306l-4.391,29.669c-0.125,0.848,0.455,1.63,1.303,1.755l1.721,0.255
						c0.848,0.125,1.63-0.455,1.755-1.303l4.392-29.669c0.125-0.848-0.455-1.633-1.302-1.758L278.678,630.31z"/>
					<path id="rect464912_00000090296921287076640290000009026934039212793743_" style="fill:#9C3A24;" d="M256.602,660.594
						l0.316,0.047c1.178,0.174,1.991,1.27,1.816,2.448l-6.898,46.606c-0.174,1.177-1.27,1.991-2.448,1.817l-0.316-0.047
						c-1.178-0.174-1.991-1.27-1.817-2.448l6.898-46.606C254.329,661.233,255.425,660.42,256.602,660.594z"/>
					<path id="rect464914_00000132809795712213217160000001106795676413728905_" style="fill:#F48134;" d="M252.78,657.85
						l8.592,1.272c1.178,0.174,1.991,1.27,1.817,2.448l0,0c-0.174,1.178-1.27,1.991-2.448,1.817l-8.592-1.272
						c-1.178-0.174-1.991-1.27-1.817-2.448l0,0C250.506,658.489,251.602,657.675,252.78,657.85z"/>
				</g>
				<path id="path464916_00000045582018626725192250000017729995195378064305_" style="fill:#FDC099;" d="M262.034,693.689
					c0,0-4.032-3.254-6.638-4.771c-2.606-1.517-9.428-3.475-11.528-2.165c-2.1,1.31-2.437,2.758-1.303,4.358
					c1.134,1.6,0.061,2.22,0.015,4.068c-0.046,1.848,0.644,3.765,0.644,3.765s-0.797,0.386-0.475,2.579
					c0.322,2.193,16.556,3.31,16.556,3.31L262.034,693.689z"/>
			</g>
			<path id="path470706_00000155124269458682375880000016056308013300141471_" style="fill:#F8EFE0;" d="M90.005,176.166
				l-10.486-3.558c0,0-8.247,6.205-8.83,14.948c9.811,7.309,15.636,9.019,15.636,9.019L90.005,176.166z"/>
			<path id="path464856_00000152222329532868911680000006553241722167268492_" style="fill:#0D3141;" d="M158.233,316.156
				L144.988,431.88c0,0,14.717,7.943,31.027,3.861c4.231-53.945,20.787-113.407,20.787-113.407L158.233,316.156z"/>
			<path id="path482722_00000034071056256955638180000000920197625058379687_" style="fill:#122026;" d="M157.95,318.619
				l-4.635,40.499c6.772,1.739,17.653,5.481,19.579,12.115c2.293,7.902-1.574,49.63-3.153,65.526
				c2.046-0.168,4.146-0.486,6.275-1.019c4.164-53.085,20.184-111.216,20.697-113.067
				C182.597,321.258,170.41,319.959,157.95,318.619z"/>
			<path id="path464858_00000147190055198748079790000005872010793692150939_" style="fill:#0D3141;" d="M271.195,316.272
				l13.245,115.723c0,0-14.717,7.943-31.027,3.861c-4.231-53.945-20.787-113.407-20.787-113.407L271.195,316.272z"/>
			<path id="path487756_00000183939791572708999090000015613830157568012935_" style="fill:#122026;" d="M271.195,316.271
				l-30.916,4.952l-7.12,3.202c2.562,9.504,16.414,62.491,20.253,111.43c2.879,0.72,5.703,1.052,8.41,1.133
				c-2.118-14.589-8.473-59.733-6.789-66.645c1.35-5.543,13.346-9.484,21.036-11.483L271.195,316.271z"/>
			<path id="path470251_00000121273519195327936620000010481042296753478571_" style="fill:#215681;" d="M215.777,105.795
				l-17.764,0.923c-18.495,3.231-31.964,1.286-41.076,14.757c-5.887,8.688-21.433,60.4-25.48,65.199
				c-4.047,4.799-42.065-13.486-42.065-13.486s-15.544,27.883-12.632,37.563c35.013,14.838,51.845,21.152,66.133,19.222
				c6.425-0.868,11.659-3.933,15.488-7.044c-3.615,53.56-10.426,129.625-10.426,129.625s97.067,27.524,135.79-4.468
				c-12.879-50.067-19.547-99.557-22.893-130.345c3.908,3.581,9.749,7.577,17.253,8.591c14.288,1.931,31.12-4.384,66.133-19.222
				c2.913-9.68-12.632-37.563-12.632-37.563s-38.018,18.285-42.065,13.486c-4.047-4.799-19.591-56.512-25.478-65.199
				C251.516,103.378,238.733,107.323,215.777,105.795z"/>
			<path id="path465231_00000137828512596932887940000007707415803302085007_" d="M184.906,67.365c0,0-3.024-2.594-2.807-7.172
				c0.217-4.578,2.65-8.371,6.249-9.097c3.599-0.726,6.434,2.326,9.886,1.282c3.452-1.043,4.276-3.037,11.94,0.658
				c7.664,3.696,9.003,7.484,9.073,12.637c0.071,5.153-2.241,17.011-2.897,19.79c-0.656,2.779-3.111,4.997-3.111,4.997
				L184.906,67.365z"/>
			<path id="path464864_00000079483563381696738920000002728598037733731509_" style="fill:#FDC099;" d="M184.878,62.691
				c0,0-1.519,22.022,1.343,28.243c2.863,6.221,7.837,7.852,12.027,6.909c1.663,2.175,2.415,8.844,2.415,8.844
				s11.48,1.136,16.59-8.194c-3.607-4.797-3.028-14.916-3.028-14.916s4.318-0.288,4.27-7.085c-0.048-6.797-3.987-5.449-5.214-4.75
				c-1.682,0.959-2.623,5.182-2.623,5.182s-2.749,0.258-5.423-4.557c-1.368-2.463,0.465-6.83-2.062-8.845
				C200.646,61.508,193.53,69.168,184.878,62.691L184.878,62.691z"/>
			<path id="path464866_00000034057550965172542590000012597198002742421920_" style="fill:#F9796E;" d="M216.62,75.531
				c-0.542-2.06-2.379-1.888-3.206,0.896c-0.827,2.784-0.319,4.325,0.896,4.182c1.215-0.143,1.757-0.941,1.426-2.39
				c-0.331-1.449-1.541-1.01-1.541-1.01S214.6,74.304,216.62,75.531z"/>
			<path id="ellipse464868_00000125594688159181856110000000922336846922223755_" style="fill:#2C1100;" d="M189.083,73.855
				c0.611,0,1.107,0.65,1.107,1.452c0,0.802-0.495,1.452-1.107,1.452c-0.611,0-1.107-0.65-1.107-1.452
				C187.977,74.505,188.472,73.855,189.083,73.855z"/>
			<path id="ellipse464870_00000122695218432222227880000013677583482503126403_" style="fill:#2C1100;" d="M199.094,74.113
				c0.611,0,1.107,0.65,1.107,1.452c0,0.802-0.496,1.452-1.107,1.452c-0.611,0-1.107-0.65-1.107-1.452
				C197.987,74.763,198.482,74.113,199.094,74.113z"/>
			<path id="path464872_00000038410808827598132670000017453113827513472434_" style="fill:#F9796E;" d="M191.363,83.126
				c0,0-0.055-0.876,0.931-1.024c0.987-0.148,1.767,0.801,1.767,0.801C194.062,82.902,192.44,83.825,191.363,83.126L191.363,83.126z
				"/>
			<path id="path464874_00000150802140208763315180000017601174093813775033_" style="fill:#F9796E;" d="M210.171,87.799
				c-5.966,7.222-11.006,9.576-14.171,10.287c0.763,0.002,1.518-0.078,2.249-0.243c0.462,0.603,0.846,1.561,1.17,2.618
				C202.618,98.698,209.485,94.204,210.171,87.799z"/>
			<path id="path464876_00000134954953440229226940000012599781966812853638_" style="fill:#2C1100;" d="M196.845,69.747
				c0.798-0.734,3.158-1.01,4.23-0.174c0.603,0.47,0.117,0.967-0.201,0.876c-0.318-0.091-2.38,0.289-2.987,0.831
				c-0.47,0.419-0.989,0.279-1.277-0.124C196.377,70.829,196.418,70.14,196.845,69.747L196.845,69.747z"/>
			<path id="path464878_00000140703406408172477420000010176252969220943806_" style="fill:#2C1100;" d="M190.777,69.971
				c-0.798-0.734-3.158-1.01-4.23-0.174c-0.603,0.47-0.117,0.967,0.201,0.876c0.318-0.091,2.38,0.289,2.987,0.83
				c0.47,0.419,0.989,0.279,1.277-0.124C191.245,71.053,191.204,70.364,190.777,69.971z"/>
			<path id="path465229_00000072280030161532273720000008982344913604196494_" d="M184.777,83.974c0,0,2.515,2.165,3.881,1.307
				c1.366-0.858,3.257-1.073,5.49-0.882c2.233,0.19,3.154,0.497,4.683,1.165c1.528,0.668,5.03,0.522,6.618-1.589
				c1.588-2.111,2.515-9.063,2.515-9.063l2.845,0.902c0,0,0.417,8.152,0.266,10.687c-0.152,2.535-4.531,7.06-6.986,8.99
				c-2.455,1.931-4.537,3.544-8.39,3.34c-3.854-0.205-6.764-0.254-8.228-2.262C186.007,94.559,183.888,89.366,184.777,83.974
				L184.777,83.974z"/>
			<path id="path465441_00000100353487055598938380000013422290254220912814_" style="fill:#FDC099;" d="M190.198,87.397
				c0,0,1.051-0.648,2.163-0.609c1.111,0.039,3.312,0.01,4.477,0.653C194.816,88.202,191.179,87.87,190.198,87.397L190.198,87.397z"
				/>
			<path id="path469585_00000132784543276743470380000015061079933986427808_" style="fill:#F8EFE0;" d="M199.6,101.495l-2.913,4.84
				l-5.534,1.958c0,0,4.967,14.024,13.26,20.96c14.287-11.197,24.773-22.849,24.773-22.849l-9.152-3.585l-4.446-7.281
				c0,0-7.726,6.012-12.908,7.295C200.29,102.57,199.6,101.495,199.6,101.495L199.6,101.495z"/>
			<path id="path469620_00000101803361811270053620000014426822822004084655_" style="fill:#9E1512;" d="M206.008,107.149
				l-3.297,0.165l-4.032,5.115l2.929,3.075l-2.737,7.585c1.625,2.276,3.481,4.441,5.542,6.165c2.29-1.795,4.468-3.598,6.535-5.366
				c-1.866-3.324-4.85-8.067-4.85-8.067l3.189-3.363L206.008,107.149z"/>
			<path id="path472739_00000123436946267154422990000002788702157201966270_" style="fill:#F1997E;" d="M71.301,167.161
				c0,0-1.18-1.551-3.403-0.738c-2.223,0.814-4.461,6.936-4.078,8.626c0.383,1.689,1.717,2.151,3.112,0.634
				c1.395-1.517,2.368-3.834,2.368-3.834s-0.996,3.972,0.383,5.495c1.38,1.524,2.828,0.958,4.185-1.069
				C75.226,174.249,73.378,169.12,71.301,167.161L71.301,167.161z"/>
			<path id="path479634_00000170966099005508059510000012940701111388377219_" style="opacity:0.35;fill:#0F3749;" d="
				M249.447,162.719c-0.867,8.62,21.376,172.276,18.645,180.116c-2.732,7.84-8.325,5.811-15.783,2.301
				c-7.458-3.51-16.954-68.84-16.954-68.84s1.69,43.761,2.904,53.668c1.214,9.907-0.65,18.098-11.316,18.254
				c-10.667,0.156-9.583-6.358-11.491-26.639c-1.908-20.282-7.847-88.342-7.847-88.342s2.211,114.122-10.84,115.682
				c-13.051,1.56-32.868-2.339-35.729-17.161c-2.862-14.821,3.773-108.586,3.21-161.162c-1.084,15.016-6.418,43.333-17.345,52.381
				c-6.421,5.317-20.564,4.549-31.214,3.031c11.291,3.631,19.65,4.986,27.205,3.965c6.425-0.868,11.659-3.933,15.488-7.044
				c-3.615,53.56-10.426,129.625-10.426,129.625s97.067,27.524,135.79-4.468c-12.879-50.067-19.547-99.557-22.893-130.345
				c3.908,3.581,9.749,7.577,17.253,8.591c11.381,1.538,24.826-2.397,47.338-11.462c-11.593,2.033-29.088,4.803-39.575,4.753
				C269.609,219.545,264.189,211.941,249.447,162.719z"/>
			<path id="path479850_00000031886042902998862810000015617853955006500769_" style="opacity:0.35;fill:#0F3749;" d="
				M185.67,112.626c0,0,6.439,19.443,17.127,24.299c15.956-8.347,28.747-26.893,28.747-26.893s-2.949,4.953-3.144,6.786
				c-0.195,1.833-1.366,33.504-1.279,31.573c0.087-1.931-0.889-28.316-0.889-28.316s-7.176,8.366-8.997,10.745
				c-1.821,2.379,0.304,32.997,0.304,32.997l-3.707-29.116c0,0-6.678,4.095-9.756,5.207c-0.39,27.965-2.385,42.65-2.385,42.65
				l-1.496-42.514l-7.089-4.856c0,0-3.208,30.11-3.36,27.907c-0.152-2.204,2.233-29.564,1.496-31.632
				c-0.737-2.067-4.076-8.795-4.076-8.795l-2.125,23.46c0,0,1.496-23.519,0.889-25.859
				C185.324,117.93,185.671,112.626,185.67,112.626L185.67,112.626z"/>
		</g>
		<g>
			
				<ellipse transform="matrix(0.2298 -0.9732 0.9732 0.2298 -278.5131 527.0992)" style="fill:#CC6017;" cx="193.753" cy="439.508" rx="23.829" ry="23.829"/>
			<g>
				<defs>
					
						<ellipse id="SVGID_00000049197641741435877230000012174762205690040465_" transform="matrix(0.2298 -0.9732 0.9732 0.2298 -278.5131 527.0992)" cx="193.753" cy="439.508" rx="23.829" ry="23.829"/>
				</defs>
				<clipPath id="SVGID_00000168803160139888413930000005055616150535858313_">
					<use xlink:href="#SVGID_00000049197641741435877230000012174762205690040465_"  style="overflow:visible;"/>
				</clipPath>
				<g style="clip-path:url(#SVGID_00000168803160139888413930000005055616150535858313_);">
					<rect x="187.724" y="416.708" style="fill:#E5772E;" width="33.049" height="1.147"/>
					<rect x="187.724" y="422.741" style="fill:#E5772E;" width="33.049" height="1.147"/>
					<rect x="187.724" y="428.774" style="fill:#E5772E;" width="33.049" height="1.147"/>
					<rect x="187.724" y="434.807" style="fill:#E5772E;" width="33.049" height="1.147"/>
					<rect x="187.724" y="440.84" style="fill:#E5772E;" width="33.049" height="1.147"/>
					<rect x="187.724" y="446.873" style="fill:#E5772E;" width="33.049" height="1.147"/>
					<rect x="187.724" y="452.906" style="fill:#E5772E;" width="33.049" height="1.147"/>
					<rect x="187.724" y="458.939" style="fill:#E5772E;" width="33.049" height="1.147"/>
				</g>
			</g>
			
				<ellipse transform="matrix(0.9239 -0.3827 0.3827 0.9239 -153.9026 105.2944)" style="fill:#EA9B1C;" cx="187.724" cy="439.508" rx="23.829" ry="23.829"/>
			
				<ellipse transform="matrix(0.9239 -0.3827 0.3827 0.9239 -153.9026 105.2944)" style="fill:none;stroke:#F4AD47;stroke-miterlimit:10;" cx="187.724" cy="439.508" rx="18.42" ry="18.42"/>
			
				<ellipse transform="matrix(0.1602 -0.9871 0.9871 0.1602 -276.1784 554.4067)" style="fill:#CC6017;" cx="187.724" cy="439.508" rx="15.469" ry="15.469"/>
		</g>
		<g>
			<path style="fill:#EA9B1C;" d="M340.565,114.67h-51.891v-4.954c0-2.834,2.297-5.131,5.131-5.131h41.629
				c2.834,0,5.131,2.297,5.131,5.131V114.67z"/>
			<path style="opacity:0.41;fill:#CC6017;" d="M340.563,110.622v4.049h-51.89v-4.049c0-0.341,0.024-0.683,0.094-1h51.702
				C340.54,109.939,340.563,110.281,340.563,110.622z"/>
		</g>
		<g>
			<circle style="fill:#CC6017;" cx="382.038" cy="68.001" r="25.162"/>
			<path style="fill:#EA9B1C;" d="M383.632,70.152c1.916-1.322,1.909-4.186,0.064-6.032c-1.846-1.846-4.717-1.86-6.039,0.057
				c-1.315,1.909-0.587,4.108-0.587,4.108l-7.941,7.941l3.946-18.045l5.155,1.86l7.234-7.234l9.539,9.539l-7.234,7.234l1.867,5.162
				l-18.052,3.939l7.941-7.941C379.524,70.739,381.73,71.474,383.632,70.152z"/>
		</g>
		<polygon style="fill:#CC6017;" points="66.143,32.862 71.473,42.736 81.347,48.066 71.473,53.396 66.143,63.27 60.813,53.396 
			50.939,48.066 60.813,42.736 		"/>
		<polygon style="fill:#EA9B1C;" points="101.957,68.682 104.344,73.105 108.767,75.493 104.344,77.88 101.957,82.303 99.569,77.88 
			95.147,75.493 99.569,73.105 		"/>
		<polygon style="fill:#EA9B1C;" points="257.247,72.037 259.634,76.46 264.057,78.847 259.634,81.235 257.247,85.657 
			254.859,81.235 250.437,78.847 254.859,76.46 		"/>
		<g>
			<path style="fill:#F8EFE0;" d="M410.227,395.482h-90.893c-4.384,0-7.937-3.554-7.937-7.937l0,0c0-4.384,3.554-7.937,7.937-7.937
				h90.893c4.384,0,7.937,3.554,7.937,7.937l0,0C418.165,391.928,414.611,395.482,410.227,395.482z"/>
			<path style="fill:#F8EFE0;" d="M418.16,387.54c0,2.2-0.89,4.18-2.32,5.62c-1.44,1.43-3.42,2.32-5.61,2.32h-90.9
				c-4.38,0-7.93-3.55-7.93-7.94c0-1.09,0.22-2.13,0.62-3.08c1.2,2.85,4.02,4.85,7.31,4.85h90.9c2.19,0,4.17-0.89,5.61-2.32
				c0.72-0.72,1.3-1.58,1.7-2.53C417.94,385.41,418.16,386.45,418.16,387.54z"/>
			<path style="fill:#215681;" d="M385.591,387.54c0,2.2-0.89,4.18-2.32,5.62c-1.44,1.43-3.42,2.32-5.62,2.32h-20.22
				c2.19,0,4.18-0.89,5.61-2.32c1.44-1.44,2.33-3.42,2.33-5.62c0-4.38-3.56-7.93-7.94-7.93h20.22
				C382.041,379.61,385.591,383.16,385.591,387.54z"/>
			<path style="fill:#EA9B1C;" d="M382.038,386.727c0,3.394-2.752,6.146-6.146,6.146c-3.394,0-6.146-2.752-6.146-6.146
				c0-3.395,2.752-6.146,6.146-6.146C379.286,380.581,382.038,383.333,382.038,386.727z"/>
			<path style="fill:#CC6017;" d="M381.313,386.727c0,2.067-1.676,3.743-3.743,3.743c-2.067,0-3.743-1.676-3.743-3.743
				c0-2.067,1.676-3.743,3.743-3.743C379.637,382.984,381.313,384.66,381.313,386.727z"/>
			<path style="fill:#FFFFFF;" d="M318.679,395.478L318.679,395.478c-4.382,0-7.934-3.552-7.934-7.934l0,0
				c0-4.382,3.552-7.934,7.934-7.934l0,0c4.382,0,7.934,3.552,7.934,7.934l0,0C326.613,391.926,323.061,395.478,318.679,395.478z"/>
			<path style="fill:#D8BC93;" d="M324.843,387.541c0,1.71-0.692,3.249-1.803,4.369c-1.119,1.112-2.658,1.803-4.361,1.803
				c-3.405,0-6.172-2.76-6.172-6.172c0-1.702,0.692-3.242,1.811-4.361c1.112-1.112,2.659-1.804,4.361-1.804
				c1.703,0,3.242,0.692,4.361,1.804C324.151,384.299,324.843,385.839,324.843,387.541z"/>
		</g>
		<g>
			<path style="fill:#F8EFE0;" d="M427.086,379.611h-90.893c-4.384,0-7.937-3.554-7.937-7.937l0,0c0-4.384,3.554-7.937,7.937-7.937
				h90.893c4.384,0,7.937,3.554,7.937,7.937l0,0C435.023,376.058,431.469,379.611,427.086,379.611z"/>
			<path style="fill:#F8EFE0;" d="M435.018,371.669c0,2.2-0.89,4.18-2.32,5.62c-1.44,1.43-3.42,2.32-5.61,2.32h-90.9
				c-4.38,0-7.93-3.55-7.93-7.94c0-1.09,0.22-2.13,0.62-3.08c1.2,2.85,4.02,4.85,7.31,4.85h90.9c2.19,0,4.17-0.89,5.61-2.32
				c0.72-0.72,1.3-1.58,1.7-2.53C434.798,369.539,435.018,370.579,435.018,371.669z"/>
			<path style="fill:#215681;" d="M402.45,371.669c0,2.2-0.89,4.18-2.32,5.62c-1.44,1.43-3.42,2.32-5.62,2.32h-20.22
				c2.19,0,4.18-0.89,5.61-2.32c1.44-1.44,2.33-3.42,2.33-5.62c0-4.38-3.56-7.93-7.94-7.93h20.22
				C398.9,363.739,402.45,367.289,402.45,371.669z"/>
			<path style="fill:#EA9B1C;" d="M398.896,370.857c0,3.394-2.752,6.146-6.146,6.146s-6.146-2.752-6.146-6.146
				c0-3.395,2.752-6.146,6.146-6.146S398.896,367.462,398.896,370.857z"/>
			<path style="fill:#CC6017;" d="M398.172,370.857c0,2.067-1.676,3.743-3.743,3.743c-2.067,0-3.743-1.676-3.743-3.743
				c0-2.067,1.676-3.743,3.743-3.743C396.496,367.114,398.172,368.789,398.172,370.857z"/>
			<path style="fill:#FFFFFF;" d="M335.537,379.607L335.537,379.607c-4.382,0-7.934-3.552-7.934-7.934l0,0
				c0-4.382,3.552-7.934,7.934-7.934l0,0c4.382,0,7.934,3.552,7.934,7.934l0,0C343.471,376.055,339.919,379.607,335.537,379.607z"/>
			<path style="fill:#D8BC93;" d="M341.702,371.671c0,1.71-0.692,3.249-1.803,4.369c-1.119,1.112-2.658,1.803-4.361,1.803
				c-3.405,0-6.172-2.76-6.172-6.172c0-1.702,0.692-3.242,1.811-4.361c1.112-1.112,2.659-1.803,4.361-1.803
				c1.703,0,3.242,0.692,4.361,1.803C341.01,368.429,341.702,369.968,341.702,371.671z"/>
		</g>
		<g>
			<path style="fill:#F8EFE0;" d="M386.435,363.741h-90.893c-4.384,0-7.937-3.554-7.937-7.937l0,0c0-4.384,3.554-7.937,7.937-7.937
				h90.893c4.384,0,7.937,3.554,7.937,7.937l0,0C394.372,360.187,390.819,363.741,386.435,363.741z"/>
			<path style="fill:#F8EFE0;" d="M394.367,355.799c0,2.2-0.89,4.18-2.32,5.62c-1.44,1.43-3.42,2.32-5.61,2.32h-90.9
				c-4.38,0-7.93-3.55-7.93-7.94c0-1.09,0.22-2.13,0.62-3.08c1.2,2.85,4.02,4.85,7.31,4.85h90.9c2.19,0,4.17-0.89,5.61-2.32
				c0.72-0.72,1.3-1.58,1.7-2.53C394.147,353.669,394.367,354.709,394.367,355.799z"/>
			<path style="fill:#215681;" d="M361.799,355.799c0,2.2-0.89,4.18-2.32,5.62c-1.44,1.43-3.42,2.32-5.62,2.32h-20.22
				c2.19,0,4.18-0.89,5.61-2.32c1.44-1.44,2.33-3.42,2.33-5.62c0-4.38-3.56-7.93-7.94-7.93h20.22
				C358.249,347.869,361.799,351.419,361.799,355.799z"/>
			<path style="fill:#EA9B1C;" d="M358.245,354.986c0,3.394-2.752,6.146-6.146,6.146c-3.394,0-6.146-2.752-6.146-6.146
				c0-3.395,2.752-6.146,6.146-6.146C355.493,348.84,358.245,351.591,358.245,354.986z"/>
			<path style="fill:#CC6017;" d="M357.521,354.986c0,2.067-1.676,3.743-3.743,3.743c-2.067,0-3.743-1.676-3.743-3.743
				c0-2.067,1.676-3.743,3.743-3.743C355.845,351.243,357.521,352.919,357.521,354.986z"/>
			<path style="fill:#FFFFFF;" d="M294.886,363.737L294.886,363.737c-4.382,0-7.934-3.552-7.934-7.934l0,0
				c0-4.382,3.552-7.934,7.934-7.934l0,0c4.382,0,7.934,3.552,7.934,7.934l0,0C302.82,360.185,299.268,363.737,294.886,363.737z"/>
			<path style="fill:#D8BC93;" d="M301.051,355.8c0,1.71-0.692,3.249-1.803,4.369c-1.119,1.112-2.659,1.803-4.361,1.803
				c-3.405,0-6.172-2.76-6.172-6.172c0-1.702,0.692-3.242,1.811-4.361c1.112-1.112,2.659-1.803,4.361-1.803
				c1.703,0,3.242,0.692,4.361,1.803C300.359,352.558,301.051,354.098,301.051,355.8z"/>
		</g>
		<g>
			<path style="fill:#EA9B1C;" d="M296.446,51.963c0.991,0.952,2.059,1.802,3.189,2.543c0.69-2.501,1.602-4.718,2.684-6.566
				C300.122,48.925,298.135,50.293,296.446,51.963z"/>
			<path style="fill:#EA9B1C;" d="M311.845,71.758c2.651,0.166,5.19,0.812,7.553,1.854c0.323-1.884,0.527-3.922,0.59-6.094h-8.143
				V71.758z"/>
			<path style="fill:#EA9B1C;" d="M311.845,60.519v4.24h8.143c-0.062-2.172-0.266-4.21-0.59-6.094
				C317.035,59.707,314.496,60.353,311.845,60.519z"/>
			<path style="fill:#EA9B1C;" d="M321.297,54.506c1.13-0.741,2.197-1.591,3.188-2.543c-1.689-1.67-3.676-3.038-5.872-4.023
				C319.695,49.789,320.607,52.005,321.297,54.506z"/>
			<path style="fill:#EA9B1C;" d="M299.635,77.77c-1.13,0.741-2.197,1.591-3.188,2.543c1.689,1.67,3.676,3.038,5.872,4.023
				C301.237,82.487,300.325,80.271,299.635,77.77z"/>
			<path style="fill:#EA9B1C;" d="M324.485,80.314c-0.991-0.952-2.059-1.802-3.188-2.543c-0.69,2.5-1.601,4.717-2.684,6.565
				C320.81,83.351,322.797,81.984,324.485,80.314z"/>
			<path style="fill:#EA9B1C;" d="M311.845,57.751c2.457-0.176,4.804-0.816,6.976-1.847c-1.085-4.29-2.803-7.53-4.728-9.37
				c-0.736-0.135-1.486-0.23-2.248-0.282V57.751z"/>
			<path style="fill:#EA9B1C;" d="M309.086,46.252c-0.762,0.052-1.511,0.147-2.247,0.282c-1.924,1.84-3.642,5.08-4.728,9.37
				c2.171,1.032,4.518,1.671,6.975,1.847V46.252z"/>
			<path style="fill:#EA9B1C;" d="M309.086,74.525c-2.456,0.176-4.804,0.815-6.975,1.847c1.085,4.29,2.803,7.53,4.727,9.37
				c0.736,0.135,1.486,0.23,2.248,0.282V74.525z"/>
			<path style="fill:#EA9B1C;" d="M309.086,67.518h-8.142c0.062,2.172,0.266,4.21,0.589,6.094c2.363-1.042,4.901-1.688,7.552-1.854
				V67.518z"/>
			<path style="fill:#EA9B1C;" d="M309.086,60.519c-2.651-0.166-5.189-0.812-7.552-1.854c-0.323,1.884-0.527,3.922-0.59,6.094h8.142
				V60.519z"/>
			<path style="fill:#EA9B1C;" d="M311.845,86.025c0.762-0.052,1.512-0.147,2.249-0.283c1.924-1.84,3.642-5.08,4.727-9.37
				c-2.172-1.032-4.519-1.671-6.976-1.847V86.025z"/>
			<path style="fill:#EA9B1C;" d="M298.974,57.343c-1.555-0.93-3.01-2.043-4.345-3.313c-2.309,3.015-3.774,6.708-4.049,10.729h7.594
				C298.246,62.144,298.523,59.654,298.974,57.343z"/>
			<path style="fill:#EA9B1C;" d="M322.759,67.518c-0.072,2.616-0.35,5.106-0.801,7.416c1.555,0.93,3.01,2.043,4.345,3.313
				c2.309-3.015,3.774-6.708,4.049-10.729H322.759z"/>
			<path style="fill:#EA9B1C;" d="M322.759,64.759h7.594c-0.275-4.021-1.74-7.714-4.049-10.73c-1.335,1.27-2.79,2.383-4.345,3.313
				C322.409,59.653,322.687,62.143,322.759,64.759z"/>
			<path style="fill:#EA9B1C;" d="M298.173,67.518h-7.594c0.275,4.021,1.74,7.714,4.049,10.729c1.335-1.27,2.79-2.383,4.345-3.313
				C298.523,72.623,298.246,70.133,298.173,67.518z"/>
		</g>
		<polyline style="fill:none;stroke:#EA9B1C;stroke-width:7;stroke-miterlimit:10;" points="216.139,54.506 227.524,66.993 
			248.979,48.066 		"/>
	</g>
</g>
</svg>
